<svg width="151" height="45" viewBox="0 0 151 45" fill="none" xmlns="http://www.w3.org/2000/svg">
<path d="M5.9525 37.584C5.41917 37.584 4.9605 37.424 4.5765 37.104C4.1925 36.8053 4.02183 36.1867 4.0645 35.248C4.10717 34.2027 4.18183 33.1147 4.2885 31.984C4.39517 30.8533 4.5125 29.7973 4.6405 28.816C4.91783 26.6613 4.98183 24.9973 4.8325 23.824C4.7045 22.6293 4.37383 21.776 3.8405 21.264C3.3285 20.752 2.63517 20.4107 1.7605 20.24C1.33383 20.1547 0.9925 19.9947 0.7365 19.76C0.4805 19.504 0.3525 19.1733 0.3525 18.768C0.3525 18.2347 0.565833 17.8827 0.9925 17.712C1.39783 17.5413 1.9205 17.456 2.5605 17.456C3.05117 17.456 3.6805 17.488 4.4485 17.552C5.23783 17.5947 6.0805 17.6267 6.9765 17.648C7.72317 15.1947 8.56583 13.168 9.5045 11.568C10.4432 9.968 11.4672 8.70933 12.5765 7.792C13.6858 6.85333 14.8592 6.20267 16.0965 5.84C17.3338 5.456 18.6138 5.264 19.9365 5.264C21.5792 5.264 22.4005 5.85066 22.4005 7.024C22.4005 7.6 22.1232 8.03733 21.5685 8.336C21.0138 8.63467 20.1712 8.88 19.0405 9.072C17.6965 9.30667 16.5125 9.744 15.4885 10.384C14.4858 11.024 13.6005 11.9307 12.8325 13.104C12.0858 14.2773 11.4245 15.792 10.8485 17.648C13.8138 17.584 16.2458 17.424 18.1445 17.168C20.0432 16.912 21.5045 16.6667 22.5285 16.432C23.5738 16.176 24.2992 16.048 24.7045 16.048C25.2805 16.048 25.6325 16.1867 25.7605 16.464C25.9098 16.7413 25.9845 17.04 25.9845 17.36C25.9845 17.7227 25.6432 18.096 24.9605 18.48C24.5125 18.736 23.7978 19.024 22.8165 19.344C21.8352 19.6427 20.6832 19.9413 19.3605 20.24C18.0378 20.5173 16.6405 20.752 15.1685 20.944C13.7178 21.1147 12.2992 21.2 10.9125 21.2C10.5712 21.2 10.2618 21.2 9.9845 21.2C9.74983 22.4373 9.51517 23.7493 9.2805 25.136C9.06717 26.5013 8.87517 27.8347 8.7045 29.136C8.53383 30.4373 8.3845 31.6213 8.2565 32.688C8.14983 33.7547 8.08583 34.608 8.0645 35.248C8.04317 36.0373 7.8405 36.624 7.4565 37.008C7.0725 37.392 6.57117 37.584 5.9525 37.584ZM22.091 34.128C20.747 34.128 19.7657 33.7227 19.147 32.912C18.5497 32.08 18.251 31.024 18.251 29.744C18.251 28.528 18.5177 27.3547 19.051 26.224C19.5843 25.072 20.299 23.9733 21.195 22.928C22.091 21.8827 23.0937 20.912 24.203 20.016C25.3123 19.0987 26.4323 18.2773 27.563 17.552C28.715 16.8053 29.8137 16.176 30.859 15.664C31.9043 15.1307 32.811 14.7253 33.579 14.448C34.347 14.1707 34.9017 14.032 35.243 14.032C35.6057 14.032 35.9043 14.128 36.139 14.32C36.395 14.4907 36.523 14.832 36.523 15.344C36.523 15.8773 36.3097 16.3573 35.883 16.784C35.4563 17.2107 34.9337 17.5733 34.315 17.872C33.4403 18.2987 32.4483 18.8213 31.339 19.44C30.251 20.0373 29.1523 20.72 28.043 21.488C26.9337 22.256 25.9097 23.0773 24.971 23.952C24.0537 24.8267 23.307 25.744 22.731 26.704C22.155 27.6427 21.867 28.6027 21.867 29.584C21.867 29.7973 21.9097 29.968 21.995 30.096C22.0803 30.224 22.2617 30.288 22.539 30.288C22.9017 30.288 23.3817 30.1173 23.979 29.776C24.5763 29.4133 25.227 28.944 25.931 28.368C26.635 27.7707 27.339 27.12 28.043 26.416C28.747 25.6907 29.3977 24.9653 29.995 24.24C30.6137 23.4933 31.1257 22.8 31.531 22.16C31.8297 21.6693 32.1817 21.264 32.587 20.944C33.0137 20.624 33.451 20.464 33.899 20.464C34.2617 20.464 34.5603 20.5707 34.795 20.784C35.051 20.976 35.179 21.328 35.179 21.84C35.179 22.0107 35.1683 22.416 35.147 23.056C35.1257 23.6747 35.0937 24.432 35.051 25.328C35.0297 26.2027 35.019 27.12 35.019 28.08C35.019 28.912 35.0937 29.6373 35.243 30.256C35.4137 30.8533 35.7657 31.152 36.299 31.152C36.939 31.152 37.6003 30.928 38.283 30.48C38.9657 30.0107 39.627 29.424 40.267 28.72C40.9283 27.9947 41.5363 27.2267 42.091 26.416C42.6457 25.6053 43.115 24.8373 43.499 24.112C43.9043 23.3653 44.1923 22.768 44.363 22.32C44.6403 20.4427 45.003 18.9707 45.451 17.904C45.899 16.816 46.3897 16.048 46.923 15.6C47.4777 15.152 48.011 14.928 48.523 14.928C49.099 14.928 49.579 15.0667 49.963 15.344C50.3683 15.6213 50.571 16.272 50.571 17.296C50.571 17.8293 50.347 18.6293 49.899 19.696C49.451 20.7627 48.8537 21.936 48.107 23.216C47.9363 24.176 47.8297 25.168 47.787 26.192C47.7443 27.216 47.8083 28.176 47.979 29.072C48.555 28.6667 49.1417 28.0693 49.739 27.28C50.3363 26.4693 50.9337 25.5733 51.531 24.592C52.1283 23.5893 52.7257 22.5867 53.323 21.584C53.9203 20.56 54.507 19.6213 55.083 18.768C55.6803 17.9147 56.2563 17.232 56.811 16.72C57.387 16.1867 57.9523 15.92 58.507 15.92C59.083 15.92 59.6057 16.0267 60.075 16.24C60.5657 16.432 60.971 16.816 61.291 17.392C61.6323 17.9467 61.8883 18.7467 62.059 19.792C62.251 20.816 62.347 22.16 62.347 23.824C62.347 24.6987 62.4323 25.552 62.603 26.384C62.7737 27.1947 63.0617 27.8667 63.467 28.4C63.8723 28.912 64.4377 29.168 65.163 29.168C66.3363 29.168 67.3817 28.976 68.299 28.592C69.2163 28.1867 70.0163 27.7173 70.699 27.184C71.3817 26.6507 71.947 26.192 72.395 25.808C72.8643 25.4027 73.227 25.2 73.483 25.2C73.9097 25.2 74.2297 25.328 74.443 25.584C74.6777 25.8187 74.795 26.1173 74.795 26.48C74.795 26.6933 74.6137 27.0667 74.251 27.6C73.9097 28.112 73.4297 28.688 72.811 29.328C72.2137 29.9467 71.5097 30.5547 70.699 31.152C69.9097 31.728 69.067 32.208 68.171 32.592C67.275 32.976 66.3683 33.168 65.451 33.168C63.787 33.168 62.411 32.8693 61.323 32.272C60.2563 31.6533 59.4563 30.6293 58.923 29.2C58.411 27.7493 58.155 25.7973 58.155 23.344C58.155 23.1947 58.155 23.056 58.155 22.928C58.155 22.8 58.155 22.672 58.155 22.544C58.155 22.0107 58.1443 21.552 58.123 21.168C58.123 20.784 58.0697 20.4853 57.963 20.272C57.6217 20.848 57.2057 21.5733 56.715 22.448C56.2457 23.3227 55.723 24.2613 55.147 25.264C54.571 26.2667 53.9523 27.2587 53.291 28.24C52.651 29.2213 52.0003 30.1173 51.339 30.928C50.6777 31.7387 50.0163 32.3893 49.355 32.88C48.715 33.3707 48.107 33.616 47.531 33.616C47.1043 33.616 46.635 33.4027 46.123 32.976C45.6323 32.5493 45.2163 31.9733 44.875 31.248C44.5337 30.5013 44.363 29.6587 44.363 28.72C43.4457 29.872 42.4963 30.928 41.515 31.888C40.5337 32.8267 39.563 33.5733 38.603 34.128C37.6643 34.704 36.7683 34.992 35.915 34.992C35.211 34.992 34.5283 34.7893 33.867 34.384C33.227 33.9787 32.6723 33.2533 32.203 32.208C31.7337 31.1627 31.435 29.68 31.307 27.76C30.3043 29.0187 29.259 30.128 28.171 31.088C27.1043 32.048 26.0483 32.7947 25.003 33.328C23.979 33.8613 23.0083 34.128 22.091 34.128Z" fill="url(#paint0_linear_37_194)"/>
<path d="M76.415 35.056C74.9003 35.056 73.6843 34.5227 72.767 33.456C71.8497 32.368 71.391 30.9173 71.391 29.104C71.391 28.528 71.4657 27.9413 71.615 27.344C71.7857 26.7467 71.9883 26.192 72.223 25.68C72.095 25.488 71.9883 25.2427 71.903 24.944C71.839 24.624 71.807 24.2507 71.807 23.824C71.807 22.4373 72.0523 21.168 72.543 20.016C73.0337 18.8427 73.695 17.8293 74.527 16.976C75.359 16.1227 76.2763 15.4613 77.279 14.992C78.2817 14.5227 79.295 14.288 80.319 14.288C82.0683 14.288 83.4977 14.8747 84.607 16.048C85.7377 17.2213 86.303 19.0453 86.303 21.52C86.303 22.7573 86.111 24.016 85.727 25.296C85.343 26.576 84.8203 27.8027 84.159 28.976C83.519 30.128 82.7723 31.1627 81.919 32.08C81.087 32.9973 80.191 33.7227 79.231 34.256C78.2923 34.7893 77.3537 35.056 76.415 35.056ZM75.903 24.24C76.0097 24.4747 76.063 24.752 76.063 25.072C76.063 25.392 75.999 25.7227 75.871 26.064C75.743 26.4053 75.615 26.864 75.487 27.44C75.359 27.9947 75.295 28.7947 75.295 29.84C75.295 30.1173 75.327 30.352 75.391 30.544C75.4763 30.7147 75.6577 30.8 75.935 30.8C76.6603 30.8 77.343 30.5653 77.983 30.096C78.6443 29.6267 79.231 29.008 79.743 28.24C80.2763 27.472 80.7243 26.6187 81.087 25.68C81.471 24.72 81.759 23.7493 81.951 22.768C82.1643 21.7653 82.271 20.8373 82.271 19.984C82.271 19.4293 82.1643 19.0453 81.951 18.832C81.7377 18.6187 81.3643 18.512 80.831 18.512C80.1057 18.512 79.359 18.7467 78.591 19.216C77.8443 19.664 77.215 20.2827 76.703 21.072C76.191 21.84 75.935 22.7147 75.935 23.696C75.935 23.888 75.9243 24.0693 75.903 24.24ZM90.2283 44.272C89.6309 44.272 89.1616 44.0587 88.8203 43.632C88.5003 43.2267 88.3403 42.5973 88.3403 41.744C88.3403 40.5707 88.4469 39.1733 88.6603 37.552C88.8736 35.9307 89.1616 34.2133 89.5243 32.4C89.8869 30.5867 90.2816 28.8053 90.7083 27.056C91.2203 25.0507 91.7216 23.2267 92.2123 21.584C92.7243 19.9413 93.2363 18.6293 93.7483 17.648C94.2816 16.6453 94.8149 16.144 95.3483 16.144C95.8389 16.144 96.2656 16.3253 96.6283 16.688C97.0123 17.0293 97.2043 17.5413 97.2043 18.224C97.2043 18.7147 97.0763 19.4187 96.8203 20.336C96.5643 21.232 96.2443 22.352 95.8603 23.696C96.5856 22.5013 97.3323 21.328 98.1003 20.176C98.8896 19.024 99.6896 17.9787 100.5 17.04C101.311 16.1013 102.1 15.3547 102.868 14.8C103.636 14.2453 104.362 13.968 105.044 13.968C105.855 13.968 106.57 14.2027 107.188 14.672C107.828 15.1413 108.33 15.7813 108.692 16.592C109.055 17.4027 109.236 18.32 109.236 19.344C109.236 21.2427 108.895 23.088 108.212 24.88C107.53 26.6507 106.58 28.24 105.364 29.648C104.17 31.056 102.772 32.176 101.172 33.008C99.5723 33.8187 97.8443 34.224 95.9883 34.224C95.4549 34.224 94.9643 34.1707 94.5163 34.064C94.0896 33.9787 93.6949 33.872 93.3323 33.744C93.0763 35.1093 92.8309 36.5067 92.5963 37.936C92.3829 39.3867 92.1589 40.912 91.9243 42.512C91.6683 43.6853 91.1029 44.272 90.2283 44.272ZM105.364 17.744C104.895 17.744 104.298 18.064 103.572 18.704C102.868 19.344 102.1 20.1867 101.268 21.232C100.436 22.256 99.5936 23.376 98.7403 24.592C97.9083 25.7867 97.1083 26.96 96.3403 28.112C95.5936 29.264 94.9536 30.2667 94.4203 31.12C96.0416 30.9493 97.4709 30.5227 98.7083 29.84C99.9456 29.136 101.002 28.2827 101.876 27.28C102.751 26.2773 103.455 25.2213 103.988 24.112C104.543 22.9813 104.948 21.8827 105.204 20.816C105.46 19.7493 105.588 18.8213 105.588 18.032C105.588 17.84 105.514 17.744 105.364 17.744ZM114.277 34.48C113.679 34.48 113.146 34.2773 112.677 33.872C112.229 33.4667 112.005 32.8053 112.005 31.888C112.005 31.3973 112.069 30.704 112.197 29.808C112.346 28.912 112.538 27.9413 112.773 26.896C113.007 25.8293 113.263 24.7733 113.541 23.728C113.839 22.6827 114.127 21.7547 114.405 20.944C114.682 20.112 114.927 19.4933 115.141 19.088C115.418 18.5973 115.674 18.2987 115.909 18.192C116.165 18.064 116.41 18 116.645 18C117.071 18 117.466 18.128 117.829 18.384C118.213 18.64 118.405 19.2053 118.405 20.08C118.405 20.4213 118.341 20.976 118.213 21.744C118.085 22.4907 117.925 23.3653 117.733 24.368C117.541 25.3707 117.327 26.4053 117.093 27.472C116.879 28.5387 116.666 29.552 116.453 30.512C116.261 31.4507 116.101 32.24 115.973 32.88C115.866 33.4133 115.642 33.808 115.301 34.064C114.981 34.3413 114.639 34.48 114.277 34.48ZM117.957 14.832C117.253 14.832 116.602 14.6293 116.005 14.224C115.407 13.7973 115.109 13.1467 115.109 12.272C115.109 11.5467 115.29 10.96 115.653 10.512C116.015 10.064 116.442 9.744 116.933 9.552C117.445 9.33867 117.893 9.232 118.277 9.232C118.661 9.232 119.087 9.31733 119.557 9.488C120.026 9.63733 120.431 9.92533 120.773 10.352C121.135 10.7573 121.317 11.344 121.317 12.112C121.317 12.624 121.135 13.0933 120.773 13.52C120.41 13.9253 119.962 14.2453 119.429 14.48C118.917 14.7147 118.426 14.832 117.957 14.832ZM124.996 35.216C124.313 35.216 123.694 35.024 123.14 34.64C122.585 34.2773 122.148 33.7973 121.828 33.2C121.508 32.5813 121.348 31.92 121.348 31.216C121.348 29.8933 121.636 28.6027 122.212 27.344C122.809 26.0853 123.588 24.8907 124.548 23.76C125.508 22.6293 126.553 21.5947 127.684 20.656C128.836 19.696 129.977 18.8747 131.108 18.192C132.26 17.5093 133.305 16.976 134.244 16.592C135.204 16.208 135.95 16.016 136.484 16.016C137.102 16.016 137.604 16.1547 137.988 16.432C138.393 16.688 138.596 17.0933 138.596 17.648C138.596 17.8187 138.553 17.9573 138.468 18.064C138.745 18.128 138.969 18.288 139.14 18.544C139.31 18.8 139.396 19.184 139.396 19.696C139.396 19.9093 139.342 20.464 139.236 21.36C139.129 22.256 139.012 23.344 138.884 24.624C138.777 25.904 138.724 27.2373 138.724 28.624C138.724 28.8373 138.756 29.0293 138.82 29.2C138.884 29.3493 139.022 29.424 139.236 29.424C140.089 29.424 140.953 29.2533 141.828 28.912C142.724 28.5493 143.588 28.112 144.42 27.6C145.273 27.0667 146.041 26.544 146.724 26.032C147.428 25.4987 148.014 25.0613 148.484 24.72C148.974 24.3573 149.294 24.176 149.444 24.176C150.169 24.176 150.532 24.5387 150.532 25.264C150.532 25.456 150.297 25.8613 149.828 26.48C149.38 27.0773 148.761 27.7707 147.972 28.56C147.182 29.328 146.297 30.096 145.316 30.864C144.356 31.6107 143.353 32.2293 142.308 32.72C141.284 33.2107 140.292 33.456 139.332 33.456C138.158 33.456 137.262 33.1787 136.644 32.624C136.046 32.0693 135.62 31.3227 135.364 30.384C135.129 29.424 135.001 28.3467 134.98 27.152C133.892 28.7093 132.761 30.096 131.588 31.312C130.436 32.5067 129.294 33.456 128.164 34.16C127.033 34.864 125.977 35.216 124.996 35.216ZM136.324 19.184C134.233 20.1867 132.356 21.3387 130.692 22.64C129.028 23.92 127.705 25.264 126.724 26.672C125.764 28.08 125.284 29.4347 125.284 30.736C125.284 31.0987 125.454 31.28 125.796 31.28C126.201 31.28 126.734 31.0453 127.396 30.576C128.078 30.1067 128.814 29.488 129.604 28.72C130.393 27.9307 131.182 27.056 131.972 26.096C132.761 25.1147 133.497 24.112 134.18 23.088C134.862 22.064 135.406 21.0827 135.812 20.144C135.961 19.8027 136.132 19.4827 136.324 19.184Z" fill="#3F3C41"/>
<defs>
<linearGradient id="paint0_linear_37_194" x1="9.5" y1="24.5" x2="13.5" y2="9.5" gradientUnits="userSpaceOnUse">
<stop stop-color="#A3E6F4"/>
<stop offset="0.489583" stop-color="#B9AFBA"/>
<stop offset="1" stop-color="#F4A2AB"/>
</linearGradient>
</defs>
</svg>
