<svg width="140" height="140" viewBox="0 0 140 140" fill="none" xmlns="http://www.w3.org/2000/svg">
<rect width="140" height="140" fill="#FFFFFE"/>
<path d="M93.3333 46.3333C93.3333 52.5217 90.875 58.4566 86.4992 62.8325C82.1233 67.2083 76.1884 69.6667 70 69.6667C63.8116 69.6667 57.8767 67.2083 53.5008 62.8325C49.125 58.4566 46.6667 52.5217 46.6667 46.3333C46.6667 40.1449 49.125 34.21 53.5008 29.8342C57.8767 25.4583 63.8116 23 70 23C76.1884 23 82.1233 25.4583 86.4992 29.8342C90.875 34.21 93.3333 40.1449 93.3333 46.3333ZM86.6667 46.3333C86.6667 41.9131 84.9107 37.6738 81.7851 34.5482C78.6595 31.4226 74.4203 29.6667 70 29.6667C65.5797 29.6667 61.3405 31.4226 58.2149 34.5482C55.0893 37.6738 53.3333 41.9131 53.3333 46.3333C53.3333 50.7536 55.0893 54.9928 58.2149 58.1184C61.3405 61.2441 65.5797 63 70 63C74.4203 63 78.6595 61.2441 81.7851 58.1184C84.9107 54.9928 86.6667 50.7536 86.6667 46.3333ZM41.6667 76.3333C38.5725 76.3333 35.605 77.5625 33.4171 79.7504C31.2292 81.9383 30 84.9058 30 88V89.6667C30 97.6433 35.0767 104.39 42.2833 108.977C49.53 113.59 59.34 116.333 70 116.333C80.66 116.333 90.4667 113.59 97.7167 108.977C104.923 104.39 110 97.6433 110 89.6667V88C110 84.9058 108.771 81.9383 106.583 79.7504C104.395 77.5625 101.428 76.3333 98.3333 76.3333H41.6667ZM36.6667 88C36.6667 86.6739 37.1935 85.4022 38.1311 84.4645C39.0688 83.5268 40.3406 83 41.6667 83H98.3333C99.6594 83 100.931 83.5268 101.869 84.4645C102.807 85.4022 103.333 86.6739 103.333 88V89.6667C103.333 94.5767 100.2 99.4967 94.1367 103.353C88.1133 107.187 79.59 109.667 70 109.667C60.41 109.667 51.8867 107.187 45.8633 103.353C39.7967 99.5 36.6667 94.5733 36.6667 89.6667V88Z" fill="url(#paint0_linear_0_1)"/>
<defs>
<linearGradient id="paint0_linear_0_1" x1="88.5" y1="27.0833" x2="44.2842" y2="99.6334" gradientUnits="userSpaceOnUse">
<stop stop-color="#F4A2AB"/>
<stop offset="0.505208" stop-color="#B9AFBA"/>
<stop offset="1" stop-color="#A3E6F4"/>
</linearGradient>
</defs>
</svg>
