<svg width="80" height="80" viewBox="0 0 80 80" fill="none" xmlns="http://www.w3.org/2000/svg">
<rect width="80" height="80" fill="none"/>
<path d="M57.5 22.5C57.5 27.1413 55.6563 31.5925 52.3744 34.8744C49.0925 38.1563 44.6413 40 40 40C35.3587 40 30.9075 38.1563 27.6256 34.8744C24.3437 31.5925 22.5 27.1413 22.5 22.5C22.5 17.8587 24.3437 13.4075 27.6256 10.1256C30.9075 6.84374 35.3587 5 40 5C44.6413 5 49.0925 6.84374 52.3744 10.1256C55.6563 13.4075 57.5 17.8587 57.5 22.5ZM52.5 22.5C52.5 19.1848 51.183 16.0054 48.8388 13.6612C46.4946 11.317 43.3152 10 40 10C36.6848 10 33.5054 11.317 31.1612 13.6612C28.817 16.0054 27.5 19.1848 27.5 22.5C27.5 25.8152 28.817 28.9946 31.1612 31.3388C33.5054 33.683 36.6848 35 40 35C43.3152 35 46.4946 33.683 48.8388 31.3388C51.183 28.9946 52.5 25.8152 52.5 22.5ZM18.75 45C16.4294 45 14.2038 45.9219 12.5628 47.5628C10.9219 49.2038 10 51.4294 10 53.75V55C10 60.9825 13.8075 66.0425 19.2125 69.4825C24.6475 72.9425 32.005 75 40 75C47.995 75 55.35 72.9425 60.7875 69.4825C66.1925 66.0425 70 60.9825 70 55V53.75C70 51.4294 69.0781 49.2038 67.4372 47.5628C65.7962 45.9219 63.5706 45 61.25 45H18.75ZM15 53.75C15 52.7554 15.3951 51.8016 16.0983 51.0984C16.8016 50.3951 17.7554 50 18.75 50H61.25C62.2446 50 63.1984 50.3951 63.9016 51.0984C64.6049 51.8016 65 52.7554 65 53.75V55C65 58.6825 62.65 62.3725 58.1025 65.265C53.585 68.14 47.1925 70 40 70C32.8075 70 26.415 68.14 21.8975 65.265C17.3475 62.375 15 58.68 15 55V53.75Z" fill="#ffffff"/>
</svg>
